
	<svg xmlns="http://www.w3.org/2000/svg" xmlns:xlink="http://www.w3.org/1999/xlink" version="1.1" width="128" height="128" viewBox="0 0 100 100">




            <g transform="
                    translate(50 50)
                    translate(0 0)  scale(1)  
                    translate(-50 -50)
                    ">


                <g transform="scale(0.3069912171918829) translate(10.371099472045898 11.918150901794434)" id="picture">
    <path stroke="#none" transform="matrix(1.0822 0 0 1.0622 -9.83 -7.796)" stroke-opacity="null" stroke-width="1.5" fill="#1e2330" d="M-.5-1.547h301v302H-.5z"/>
    <path fill="#f81c1c" d="M232.212 58.629c-.438-.438-.438-.875-.875-1.313L185.399 11.38c-.437-.438-.875-.875-1.312-.875-.438-.438-1.313-.438-1.75-.438H57.649c-4.813 0-8.75 3.938-8.75 8.75v245c0 4.813 3.937 8.75 8.75 8.75h166.25c4.813 0 8.75-3.937 8.75-8.75V60.38c0-.438 0-1.313-.437-1.75zm-45.5-33.688l31.062 31.063h-31.062V24.94zM57.649 263.817v-245h120.313v37.187c0 4.812 3.937 8.75 8.75 8.75h37.187v199.063H57.65zm68.687-143.063c-1.75-1.75-4.375-1.75-6.125 0l-30.625 30.625c-1.75 1.75-1.75 4.375 0 6.125l30.625 30.625c.875.875 2.188 1.312 3.063 1.312s2.187-.437 3.062-1.312c1.75-1.75 1.75-4.375 0-6.125L98.774 154.44l27.562-27.562c1.75-1.75 1.75-4.375 0-6.125zm35 0c-1.75-1.75-4.375-1.75-6.125 0s-1.75 4.375 0 6.125l27.563 27.562-27.563 27.563c-1.75 1.75-1.75 4.375 0 6.125.875.875 2.188 1.312 3.063 1.312s2.187-.437 3.062-1.312l30.626-30.625c1.75-1.75 1.75-4.375 0-6.125l-30.626-30.625z"/>
    <path stroke="#none" transform="matrix(.41007 0 0 1.12222 13.908 -30.228)" stroke-opacity="null" stroke-width="1.5" fill="#1e2330" d="M47.5 184.453h97v90h-97z"/>
    <path stroke="#none" transform="matrix(.94606 0 0 .9762 2.003 2.003)" stroke-width="1.5" fill="#1e2330" d="M209.5 108.453h53v177h-53z"/>
    <path stroke-opacity="null" stroke-width="1.5" stroke="#none" fill="#1e2330" d="M174.274 248.77h70v34h-70z"/>
    <path fill="#fff" d="M255.896 164.774v-34.229c0-3.457-2.766-6.569-6.569-6.569h-40.106c-3.458 0-6.57 2.766-6.57 6.57v34.228h-10.718v112.022c0 7.26 5.878 13.138 13.139 13.138h48.404c7.26 0 13.138-5.878 13.138-13.138V164.774h-10.718zm-21.09-22.473c0-1.037.691-1.729 1.728-1.729h9.681c1.038 0 1.729.692 1.729 1.729v8.99c0 1.036-.691 1.728-1.729 1.728H236.19c-1.038 0-1.729-.692-1.729-1.729v-8.99h.346zm-24.202-.346c0-1.037.691-1.729 1.728-1.729h10.027c1.037 0 1.729.692 1.729 1.73v8.988c0 1.038-.692 1.73-1.73 1.73h-9.68c-1.037 0-1.729-.692-1.729-1.73v-8.989h-.345zm39.069 67.766h-3.458v7.606c0 2.766-1.037 5.187-3.111 6.915-3.458 3.458-6.915 6.57-10.373 10.027-1.037 1.037-1.728 2.42-1.728 3.803v17.979c0 .691.345.691.691.691 4.149 1.038 6.57 5.187 6.223 9.336-.345 4.148-4.149 7.26-8.297 7.26-4.15.346-7.607-2.766-8.644-6.915-1.037-4.494 1.729-8.643 5.878-10.026.345 0 .691-.346.691-1.038v-4.84c0-1.383-.691-2.766-1.729-3.803-3.457-3.458-7.26-6.57-10.718-10.027-2.074-1.729-3.111-4.149-3.111-6.915v-7.26c0-.346 0-.692-.692-1.038-2.074-1.037-3.457-3.457-2.766-5.877.692-2.42 2.42-3.803 4.84-3.803s4.495 1.728 4.84 3.803c.692 2.42-.345 4.84-2.765 5.877-.346.346-.692.346-.692 1.038v7.26c0 1.729.692 3.112 1.73 4.15 3.11 3.111 6.568 6.223 9.68 8.989l.346.345v-52.207h-4.15c2.075-3.458 3.804-6.915 5.879-10.372 2.074 3.457 3.803 6.914 5.877 10.372h-4.149v39.415c1.038-1.037 2.075-1.729 3.112-2.766 2.42-2.42 4.84-4.495 7.26-6.915 1.038-1.037 1.73-2.075 1.73-3.458v-7.952h-3.458V199.35h10.027c1.037 3.803 1.037 6.915 1.037 10.372z"/>
    <path stroke="#none" transform="matrix(.00009 .41007 -1.12222 .00023 348.763 214.85)" stroke-opacity="null" stroke-width="1.5" fill="#1e2330" d="M47.5 184.453h97v90h-97z"/>
    <path fill="#fff" d="M51.84 194.091c-.775 0-1.292.517-1.292 1.291v12.909c0 .774.517 1.29 1.291 1.29 32.788 0 60.67 27.883 60.67 60.67 0 .775.517 1.291 1.291 1.291h12.909c.774 0 1.29-.516 1.29-1.29 0-42.082-34.078-76.16-76.16-76.16zm0 23.236c-.775 0-1.292.516-1.292 1.29v12.909c0 .774.517 1.29 1.291 1.29 20.654 0 37.435 16.782 37.435 37.435 0 .775.516 1.291 1.29 1.291h12.91c.774 0 1.29-.516 1.29-1.29 0-29.174-23.751-52.925-52.925-52.925zm10.326 30.98c-6.454 0-11.618 5.163-11.618 11.618s5.164 11.617 11.618 11.617 11.618-5.163 11.618-11.617-5.164-11.618-11.618-11.618z"/>
</g>


            </g>


	</svg>
